#!OML:ASF X:\für Bonn\!DataBase\2005_08_10_Bjorn_Final\c3d\bjorn.ASF
:FULLY-SPECIFIED
:DEGREES
72
root -0.393486 18.1985 16.1526 -356.752 -177.467 -726.073
lowerback 40.6338 4.50654 9.174
upperback 24.6675 -2.611 3.58766
thorax 8.54313 -4.47016 -0.716179
lowerneck 4.48019 -5.50766 -7.81402
upperneck -3.68607 -7.60094 5.90711
head -1.40635 -3.83377 3.45763
rclavicle -4.6118e-014 -2.54444e-014
rhumerus -181.402 -159.73 106.151
rradius 25.802
rwrist 12.5761
rhand -12.7558 10.3221
rfingers 7.12502
rthumb 13.3286 -19.2316
lclavicle -4.6118e-014 -2.54444e-014
lhumerus 21.6042 -22.7762 61.7268
lradius 58.3509
lwrist 0.717673
lhand -25.7537 -367.892
lfingers 7.12502
lthumb 0.783625 22.0865
rfemur -35.2038 -13.4409 2.7062
rtibia 49.6376
rfoot -7.63015 7.75177
rtoes -13.3514
lfemur 148.576 173.264 155.274
ltibia 48.6769
lfoot -15.0798 3.80925
ltoes -14.2727
73
root -0.4308 18.107 16.191 -356.497 -177.925 -726.535
lowerback 41.0213 4.31192 9.4771
upperback 24.613 -2.79417 3.62157
thorax 8.388 -4.55202 -0.761162
lowerneck 4.24013 -5.62517 -7.56697
upperneck -3.66843 -7.72466 5.89072
head -1.35736 -3.89512 3.39515
rclavicle 6.20208e-014 1.31198e-014
rhumerus -180.906 -159.287 106.381
rradius 25.6128
rwrist 12.9004
rhand -12.7596 10.3945
rfingers 7.12502
rthumb 13.3249 -19.1595
lclavicle 6.20208e-014 1.31198e-014
lhumerus 21.8444 -22.8653 60.9401
lradius 59.1872
lwrist 0.615542
lhand -25.6755 -367.895
lfingers 7.12502
lthumb 0.859173 22.0831
rfemur -36.1703 -13.6539 2.28572
rtibia 50.3658
rfoot -8.04592 7.95829
rtoes -13.9129
lfemur 147.43 173.327 154.602
ltibia 50.063
lfoot -15.6582 4.29968
ltoes -14.7472
74
root -0.468669 18.0124 16.228 -356.268 -178.409 -726.944
lowerback 41.3895 4.12935 9.78367
upperback 24.5677 -2.98002 3.70813
thorax 8.25556 -4.64601 -0.751927
lowerneck 4.01408 -5.73323 -7.35779
upperneck -3.71565 -7.84389 5.80746
head -1.33412 -3.9531 3.31979
rclavicle 3.02153e-014 2.26615e-014
rhumerus -180.342 -158.92 106.679
rradius 25.39
rwrist 13.2237
rhand -12.8213 10.4619
rfingers 7.12502
rthumb 13.2655 -19.096
lclavicle 3.02153e-014 2.26615e-014
lhumerus 22.0464 -22.8907 60.2142
lradius 59.9746
lwrist 0.423212
lhand -25.6704 -367.947
lfingers 7.12502
lthumb 0.864128 22.0314
rfemur -37.1732 -13.8329 1.90517
rtibia 51.196
rfoot -8.49593 8.22637
rtoes -14.0446
lfemur 146.289 173.344 153.988
ltibia 51.4809
lfoot -16.2587 4.76136
ltoes -15.2562
75
root -0.5055 17.9156 16.2639 -356.077 -178.893 -727.306
lowerback 41.7761 3.92868 10.16
upperback 24.518 -3.15953 3.78686
thorax 8.11912 -4.72818 -0.784911
lowerneck 3.7938 -5.83582 -7.02045
upperneck -3.76354 -7.95246 5.65188
head -1.321 -4.00595 3.19715
rclavicle -1.74931e-014 9.93923e-015
rhumerus -179.782 -158.491 106.953
rradius 25.1819
rwrist 13.5511
rhand -12.8084 10.5036
rfingers 7.12502
rthumb 13.2779 -19.0534
lclavicle -1.74931e-014 9.93923e-015
lhumerus 22.2312 -22.9344 59.4335
lradius 60.7446
lwrist 0.0401642
lhand -25.7447 -367.977
lfingers 7.12502
lthumb 0.792341 22.0014
rfemur -38.2055 -13.9598 1.55784
rtibia 52.1335
rfoot -9.09719 8.52039
rtoes -14.4642
lfemur 145.169 173.346 153.429
ltibia 52.9189
lfoot -16.8493 5.24162
ltoes -15.7843
76
root -0.543148 17.8166 16.2996 -355.895 -179.365 -727.633
lowerback 42.1902 3.70684 10.5821
upperback 24.4341 -3.32539 3.8846
thorax 7.94109 -4.79863 -0.817001
lowerneck 3.50987 -5.93036 -6.71118
upperneck -3.71077 -8.05213 5.49304
head -1.26436 -4.05397 3.07302
rclavicle 1.11319e-014 3.65764e-014
rhumerus -179.27 -158.084 107.295
rradius 24.986
rwrist 13.8227
rhand -12.8151 10.5594
rfingers 7.12502
rthumb 13.2714 -18.9981
lclavicle 1.11319e-014 3.65764e-014
lhumerus 22.4133 -22.991 58.6906
lradius 61.4426
lwrist -0.475157
lhand -25.819 -368.022
lfingers 7.12502
lthumb 0.720561 21.9562
rfemur -39.2959 -14.065 1.23681
rtibia 53.1676
rfoot -9.76561 8.78056
rtoes -15.0952
lfemur 144.051 173.344 152.909
ltibia 54.3622
lfoot -17.4635 5.67177
ltoes -16.1578
77
root -0.579907 17.7146 16.3337 -355.746 -179.862 -727.933
lowerback 42.664 3.47944 11.0172
upperback 24.3363 -3.48798 3.98546
thorax 7.73481 -4.87155 -0.846249
lowerneck 3.09201 -5.9949 -6.45754
upperneck -3.5678 -8.11038 5.34599
head -1.15589 -4.08002 2.95449
rclavicle -4.6118e-014 2.78299e-014
rhumerus -178.74 -157.646 107.641
rradius 24.8036
rwrist 14.1641
rhand -12.794 10.6523
rfingers 7.12502
rthumb 13.2918 -18.9038
lclavicle -4.6118e-014 2.78299e-014
lhumerus 22.5818 -22.9988 57.9413
lradius 62.1022
lwrist -1.16237
lhand -25.905 -368.069
lfingers 7.12502
lthumb 0.637465 21.9096
rfemur -40.4183 -14.1242 0.931987
rtibia 54.2713
rfoot -10.4137 9.0858
rtoes -15.4163
lfemur 142.95 173.292 152.417
ltibia 55.8218
lfoot -18.0576 6.1348
ltoes -16.6689
78
root -0.616465 17.6107 16.3663 -355.628 -180.329 -728.202
lowerback 43.6572 -8.34986 0.597391
upperback 24.7922 2.51636 -0.370584
thorax 7.35661 5.7519 -0.878961
lowerneck 2.5728 -6.0518 -6.2577
upperneck -3.32421 -8.15823 5.22669
head -0.995818 -4.09995 2.84799
rclavicle 2.70347e-014 2.38542e-015
rhumerus -178.212 -157.23 108.028
rradius 24.6158
rwrist 14.4325
rhand -12.7949 10.7304
rfingers 7.12502
rthumb 13.2909 -18.8258
lclavicle 2.70347e-014 2.38542e-015
lhumerus 22.7347 -23.0304 57.1802
lradius 62.748
lwrist -1.94042
lhand -26.1571 -368.161
lfingers 7.12502
lthumb 0.394024 21.8183
rfemur -41.5469 -14.1653 0.648893
rtibia 55.4369
rfoot -11.0917 9.33154
rtoes -15.906
lfemur 141.878 173.272 151.969
ltibia 57.2876
lfoot -18.6696 6.58714
ltoes -17.2244
79
root -0.652843 17.5041 16.3977 -355.518 -180.811 -728.442
lowerback 44.2447 -8.55528 0.989614
upperback 24.6958 2.41575 -0.256301
thorax 7.08906 5.72107 -0.956671
lowerneck 1.99854 -6.11827 -5.99723
upperneck -3.00188 -8.21804 5.07662
head -0.805435 -4.12535 2.71682
rclavicle 5.08889e-014 -1.70955e-014
rhumerus -177.739 -156.821 108.442
rradius 24.4554
rwrist 14.6412
rhand -12.7712 10.7542
rfingers 7.12502
rthumb 13.3138 -18.8005
lclavicle 5.08889e-014 -1.70955e-014
lhumerus 22.8457 -23.1535 56.3091
lradius 63.4206
lwrist -2.71469
lhand -26.6007 -368.345
lfingers 7.12502
lthumb -0.0344679 21.6346
rfemur -42.7052 -14.1871 0.393002
rtibia 56.6432
rfoot -11.7212 9.5924
rtoes -16.2135
lfemur 140.791 173.196 151.548
ltibia 58.7748
lfoot -19.2485 7.01144
ltoes -17.7519
80
root -0.688701 17.3942 16.4276 -355.445 -181.28 -728.662
lowerback 44.8431 -8.77216 1.35314
upperback 24.6027 2.30208 -0.113826
thorax 6.82708 5.67741 -0.982658
lowerneck 1.40686 -6.16312 -5.79832
upperneck -2.62087 -8.25676 4.88504
head -0.595891 -4.13971 2.58225
rclavicle 5.08889e-014 1.31198e-014
rhumerus -177.219 -156.437 108.871
rradius 24.2674
rwrist 14.834
rhand -12.7538 10.7913
rfingers 7.12502
rthumb 13.3305 -18.7623
lclavicle 5.08889e-014 1.31198e-014
lhumerus 22.8719 -23.1894 55.4951
lradius 64.0592
lwrist -3.59393
lhand -27.0667 -368.563
lfingers 7.12502
lthumb -0.484487 21.4158
rfemur -43.8532 -14.1856 0.144741
rtibia 57.8893
rfoot -12.3629 9.83574
rtoes -16.9038
lfemur 139.742 173.141 151.158
ltibia 60.2674
lfoot -19.8519 7.44701
ltoes -18.2529
81
root -0.72367 17.282 16.4548 -355.381 -181.758 -728.839
lowerback 45.5623 -9.01221 1.77691
upperback 24.3682 2.18954 -0.00506161
thorax 6.57223 5.64376 -1.06417
lowerneck 0.78386 -6.19951 -5.56488
upperneck -2.20064 -8.28378 4.69062
head -0.372682 -4.14798 2.44036
rclavicle 5.725e-014 4.69132e-014
rhumerus -176.701 -155.985 109.261
rradius 24.1178
rwrist 14.9217
rhand -12.6109 10.8996
rfingers 7.12502
rthumb 13.4683 -18.6449
lclavicle 5.725e-014 4.69132e-014
lhumerus 22.9061 -23.247 54.6243
lradius 64.6885
lwrist -4.505
lhand -27.4971 -368.746
lfingers 7.12502
lthumb -0.900212 21.2315
rfemur -45.0068 -14.157 -0.0682506
rtibia 59.1696
rfoot -12.9175 10.1217
rtoes -17.2608
lfemur 138.698 173.046 150.818
ltibia 61.78
lfoot -20.4563 7.86882
ltoes -18.747
82
root -0.758269 17.1681 16.48 -355.359 -182.238 -728.986
lowerback 47.089 -9.27816 2.1893
upperback 23.5165 2.08529 0.0555535
thorax 6.18661 5.60739 -1.11116
lowerneck 0.243791 -6.20838 -5.36389
upperneck -1.82139 -8.28108 4.47028
head -0.179654 -4.14238 2.30257
rclavicle -5.725e-014 -7.03698e-014
rhumerus -176.092 -155.58 109.665
rradius 23.9246
rwrist 14.8815
rhand -12.499 10.9737
rfingers 7.12502
rthumb 13.5761 -18.5636
lclavicle -5.725e-014 -7.03698e-014
lhumerus 22.937 -23.2225 53.7661
lradius 65.2923
lwrist -5.48909
lhand -27.6657 -368.961
lfingers 7.12502
lthumb -1.06305 21.0158
rfemur -46.1407 -14.1028 -0.258133
rtibia 60.4857
rfoot -13.4518 10.3852
rtoes -17.826
lfemur 137.69 172.925 150.515
ltibia 63.305
lfoot -21.0774 8.24745
ltoes -19.1282
83
root -0.79207 17.0494 16.5027 -355.344 -182.701 -729.114
lowerback 47.6436 -9.54981 2.62115
upperback 23.3949 1.95798 0.180072
thorax 5.96392 5.56157 -1.15908
lowerneck -0.0816155 -6.18791 -5.20465
upperneck -1.51345 -8.2486 4.27109
head -0.0452758 -4.12395 2.19102
rclavicle 1.27222e-014 -3.53837e-014
rhumerus -175.509 -155.141 110.081
rradius 23.687
rwrist 14.9137
rhand -12.3951 11.0035
rfingers 7.12502
rthumb 13.6762 -18.5271
lclavicle 1.27222e-014 -3.53837e-014
lhumerus 22.8517 -23.2109 52.9124
lradius 65.9082
lwrist -6.57071
lhand -27.5621 -369.283
lfingers 7.12502
lthumb -0.962948 20.6951
rfemur -47.2863 -14.0426 -0.438363
rtibia 61.8481
rfoot -13.9853 10.6486
rtoes -18.33
lfemur 136.684 172.804 150.238
ltibia 64.8512
lfoot -21.7148 8.6136
ltoes -19.5022
